<svg id="visual" viewBox="0 0 900 600" width="900" height="600" xmlns="http://www.w3.org/2000/svg" xmlns:xlink="http://www.w3.org/1999/xlink" version="1.1"><path d="M0 115L13.7 113C27.3 111 54.7 107 82 105C109.3 103 136.7 103 163.8 105C191 107 218 111 245.2 109C272.3 107 299.7 99 327 95C354.3 91 381.7 91 409 89C436.3 87 463.7 83 491 89C518.3 95 545.7 111 573 116C600.3 121 627.7 115 654.8 108C682 101 709 93 736.2 82C763.3 71 790.7 57 818 61C845.3 65 872.7 87 886.3 98L900 109L900 0L886.3 0C872.7 0 845.3 0 818 0C790.7 0 763.3 0 736.2 0C709 0 682 0 654.8 0C627.7 0 600.3 0 573 0C545.7 0 518.3 0 491 0C463.7 0 436.3 0 409 0C381.7 0 354.3 0 327 0C299.7 0 272.3 0 245.2 0C218 0 191 0 163.8 0C136.7 0 109.3 0 82 0C54.7 0 27.3 0 13.7 0L0 0Z" fill="#6198ff"></path><path d="M0 253L13.7 260C27.3 267 54.7 281 82 279C109.3 277 136.7 259 163.8 250C191 241 218 241 245.2 249C272.3 257 299.7 273 327 279C354.3 285 381.7 281 409 289C436.3 297 463.7 317 491 321C518.3 325 545.7 313 573 294C600.3 275 627.7 249 654.8 251C682 253 709 283 736.2 273C763.3 263 790.7 213 818 196C845.3 179 872.7 195 886.3 203L900 211L900 107L886.3 96C872.7 85 845.3 63 818 59C790.7 55 763.3 69 736.2 80C709 91 682 99 654.8 106C627.7 113 600.3 119 573 114C545.7 109 518.3 93 491 87C463.7 81 436.3 85 409 87C381.7 89 354.3 89 327 93C299.7 97 272.3 105 245.2 107C218 109 191 105 163.8 103C136.7 101 109.3 101 82 103C54.7 105 27.3 109 13.7 111L0 113Z" fill="#3c80ff"></path><path d="M0 397L13.7 392C27.3 387 54.7 377 82 382C109.3 387 136.7 407 163.8 408C191 409 218 391 245.2 387C272.3 383 299.7 393 327 406C354.3 419 381.7 435 409 441C436.3 447 463.7 443 491 446C518.3 449 545.7 459 573 450C600.3 441 627.7 413 654.8 407C682 401 709 417 736.2 417C763.3 417 790.7 401 818 408C845.3 415 872.7 445 886.3 460L900 475L900 209L886.3 201C872.7 193 845.3 177 818 194C790.7 211 763.3 261 736.2 271C709 281 682 251 654.8 249C627.7 247 600.3 273 573 292C545.7 311 518.3 323 491 319C463.7 315 436.3 295 409 287C381.7 279 354.3 283 327 277C299.7 271 272.3 255 245.2 247C218 239 191 239 163.8 248C136.7 257 109.3 275 82 277C54.7 279 27.3 265 13.7 258L0 251Z" fill="#0066ff"></path><path d="M0 505L13.7 506C27.3 507 54.7 509 82 517C109.3 525 136.7 539 163.8 539C191 539 218 525 245.2 524C272.3 523 299.7 535 327 542C354.3 549 381.7 551 409 547C436.3 543 463.7 533 491 530C518.3 527 545.7 531 573 527C600.3 523 627.7 511 654.8 515C682 519 709 539 736.2 542C763.3 545 790.7 531 818 528C845.3 525 872.7 533 886.3 537L900 541L900 473L886.3 458C872.7 443 845.3 413 818 406C790.7 399 763.3 415 736.2 415C709 415 682 399 654.8 405C627.7 411 600.3 439 573 448C545.7 457 518.3 447 491 444C463.7 441 436.3 445 409 439C381.7 433 354.3 417 327 404C299.7 391 272.3 381 245.2 385C218 389 191 407 163.8 406C136.7 405 109.3 385 82 380C54.7 375 27.3 385 13.7 390L0 395Z" fill="#0059dd"></path><path d="M0 601L13.7 601C27.3 601 54.7 601 82 601C109.3 601 136.7 601 163.8 601C191 601 218 601 245.2 601C272.3 601 299.7 601 327 601C354.3 601 381.7 601 409 601C436.3 601 463.7 601 491 601C518.3 601 545.7 601 573 601C600.3 601 627.7 601 654.8 601C682 601 709 601 736.2 601C763.3 601 790.7 601 818 601C845.3 601 872.7 601 886.3 601L900 601L900 539L886.3 535C872.7 531 845.3 523 818 526C790.7 529 763.3 543 736.2 540C709 537 682 517 654.8 513C627.7 509 600.3 521 573 525C545.7 529 518.3 525 491 528C463.7 531 436.3 541 409 545C381.7 549 354.3 547 327 540C299.7 533 272.3 521 245.2 522C218 523 191 537 163.8 537C136.7 537 109.3 523 82 515C54.7 507 27.3 505 13.7 504L0 503Z" fill="#004cbb"></path></svg>